
#
# '/mnt/sdcard/Download/cds-data/audio/Track_13 (600s 8kbps).mp3'
#
General
Count                                    : 284
Count of stream of this kind             : 1
Kind of stream                           : General
Kind of stream                           : General
Stream identifier                        : 0
Count of audio streams                   : 1
Audio_Format_List                        : MPEG Audio
Audio_Format_WithHint_List               : MPEG Audio
Audio codecs                             : MPEG-2.5 Audio layer 3
Complete name                            : /mnt/sdcard/Download/cds-data/audio/Track_13 (600s 8kbps).mp3
Folder name                              : /mnt/sdcard/Download/cds-data/audio
File name                                : Track_13 (600s 8kbps)
File extension                           : mp3
Format                                   : MPEG Audio
Format                                   : MPEG Audio
Format/Extensions usually used           : m1a mpa1 mp1 m2a mpa2 mp2 mp3
Commercial name                          : MPEG Audio
Internet media type                      : audio/mpeg
Codec                                    : MPEG Audio
Codec                                    : MPEG Audio
Codec/Extensions usually used            : m1a mpa1 mp1 m2a mpa2 mp2 mp3
File size                                : 600320
File size                                : 586 KiB
File size                                : 586 KiB
File size                                : 586 KiB
File size                                : 586 KiB
File size                                : 586.2 KiB
Duration                                 : 600192
Duration                                 : 10mn 0s
Duration                                 : 10mn 0s 192ms
Duration                                 : 10mn 0s
Duration                                 : 00:10:00.192
Overall bit rate mode                    : CBR
Overall bit rate mode                    : Constant
Overall bit rate                         : 8000
Overall bit rate                         : 8 000 bps
Stream size                              : 128
Stream size                              : 128 Bytes (0%)
Stream size                              : 128 Bytes
Stream size                              : 128 Bytes
Stream size                              : 128 Bytes
Stream size                              : 128.0 Bytes
Stream size                              : 128 Bytes (0%)
Proportion of this stream                : 0.00021
Title                                    : Track_13
Album                                    : Album_1
Track name                               : Track_13
Performer                                : Andrew
File last modification date              : UTC 2014-11-26 06:29:51
File last modification date (local)      : 2014-11-26 15:29:51

Audio
Count                                    : 222
Count of stream of this kind             : 1
Kind of stream                           : Audio
Kind of stream                           : Audio
Stream identifier                        : 0
Format                                   : MPEG Audio
Commercial name                          : MPEG Audio
Format version                           : Version 2.5
Format profile                           : Layer 3
Format settings                          : Joint stereo / MS Stereo
Mode                                     : Joint stereo
Mode extension                           : MS Stereo
Internet media type                      : audio/mpeg
Codec                                    : MPA2.5L3
Codec                                    : MPEG-2.5 Audio layer 3
Codec profile                            : Joint stereo
Duration                                 : 600192
Duration                                 : 10mn 0s
Duration                                 : 10mn 0s 192ms
Duration                                 : 10mn 0s
Duration                                 : 00:10:00.192
Bit rate mode                            : CBR
Bit rate mode                            : Constant
Bit rate                                 : 8000
Bit rate                                 : 8 000 bps
Channel(s)                               : 2
Channel(s)                               : 2 channels
Sampling rate                            : 8000
Sampling rate                            : 8 000 Hz
Samples count                            : 4801536
Frame count                              : 8336
Compression mode                         : Lossy
Compression mode                         : Lossy
Stream size                              : 600192
Stream size                              : 586 KiB (100%)
Stream size                              : 586 KiB
Stream size                              : 586 KiB
Stream size                              : 586 KiB
Stream size                              : 586.1 KiB
Stream size                              : 586 KiB (100%)
Proportion of this stream                : 0.99979

